<svg xmlns="http://www.w3.org/2000/svg" xmlns:xlink="http://www.w3.org/1999/xlink" width="30pt" height="30pt" viewBox="0 0 24 24" version="1.1">
                          <g id="surface1">
                            <path style=" stroke:none;fill-rule:evenodd;fill:rgb(21.176471%,21.568627%,21.960784%);fill-opacity:1;" d="M 23.980469 21.105469 C 23.96875 22.761719 22.855469 23.988281 21.34375 23.992188 C 20.5625 23.996094 19.78125 23.992188 19 23.992188 C 18.167969 23.992188 17.339844 23.992188 16.507812 23.992188 L 16.5 23.992188 C 16.160156 23.992188 15.816406 23.992188 15.472656 23.992188 C 15.46875 23.992188 15.460938 23.980469 15.453125 23.972656 C 15.457031 23.882812 15.527344 23.832031 15.570312 23.765625 C 16.074219 23.011719 16.347656 22.171875 16.351562 21.234375 C 16.359375 20.128906 16.371094 19.023438 16.347656 17.917969 C 16.308594 16.199219 15.851562 14.605469 15.035156 13.140625 C 15 13.074219 14.957031 13.015625 14.902344 12.933594 C 15.039062 12.953125 15.167969 12.980469 15.300781 13.003906 C 15.355469 13.015625 15.40625 13.023438 15.460938 13.03125 C 15.578125 13.054688 15.699219 13.074219 15.816406 13.089844 C 15.863281 13.09375 15.910156 13.097656 15.957031 13.101562 C 16.058594 13.113281 16.164062 13.121094 16.265625 13.125 C 16.316406 13.128906 16.363281 13.128906 16.414062 13.128906 C 16.515625 13.128906 16.617188 13.132812 16.71875 13.128906 C 16.867188 13.125 17.019531 13.113281 17.167969 13.097656 C 17.191406 13.097656 17.214844 13.09375 17.238281 13.089844 C 17.398438 13.070312 17.558594 13.042969 17.714844 13.011719 C 17.777344 13 17.839844 12.984375 17.902344 12.96875 C 18.015625 12.941406 18.128906 12.914062 18.242188 12.878906 C 18.320312 12.855469 18.398438 12.828125 18.476562 12.800781 C 18.605469 12.757812 18.730469 12.707031 18.855469 12.65625 C 19.457031 12.402344 20.035156 12.054688 20.574219 11.597656 C 20.683594 11.503906 20.75 11.492188 20.867188 11.589844 C 22.855469 13.230469 23.910156 15.410156 23.976562 18.148438 C 24 19.132812 23.988281 20.121094 23.980469 21.105469 Z M 17.21875 11.53125 C 15.644531 11.78125 14.25 11.285156 13.035156 10.15625 C 12.910156 10.035156 12.925781 9.957031 13.007812 9.824219 C 13.726562 8.617188 14.078125 7.289062 14.085938 5.839844 C 14.070312 4.417969 13.726562 3.09375 13.007812 1.898438 C 12.914062 1.742188 12.925781 1.664062 13.054688 1.550781 C 14.585938 0.160156 16.3125 -0.265625 18.1875 0.453125 C 20.09375 1.1875 21.269531 2.707031 21.617188 4.902344 C 22.125 8.097656 20.144531 11.070312 17.21875 11.53125 Z M 7.464844 11.59375 C 4.605469 11.589844 2.261719 9.019531 2.253906 5.875 C 2.242188 2.71875 4.589844 0.132812 7.460938 0.128906 C 10.335938 0.125 12.679688 2.695312 12.679688 5.859375 C 12.683594 9.015625 10.332031 11.601562 7.464844 11.59375 Z M 3.109375 11.597656 C 3.234375 11.492188 3.308594 11.507812 3.421875 11.605469 C 5.859375 13.652344 9.105469 13.648438 11.523438 11.597656 C 11.636719 11.503906 11.699219 11.492188 11.820312 11.589844 C 13.804688 13.230469 14.863281 15.410156 14.929688 18.148438 C 14.953125 19.132812 14.9375 20.121094 14.933594 21.105469 C 14.921875 22.761719 13.804688 23.988281 12.296875 23.992188 C 9.082031 24 5.871094 23.996094 2.660156 23.992188 C 1.332031 23.992188 0 23.214844 0 21.582031 L 0 17.828125 C 0 17.519531 0.109375 16.789062 0.175781 16.480469 C 0.609375 14.453125 1.589844 12.832031 3.109375 11.597656 Z M 3.109375 11.597656 "/>
                          </g>
                        </svg>